<?xml version="1.0" encoding="UTF-8" standalone="no"?>
<svg
   xmlns:dc="http://purl.org/dc/elements/1.1/"
   xmlns:cc="http://creativecommons.org/ns#"
   xmlns:rdf="http://www.w3.org/1999/02/22-rdf-syntax-ns#"
   xmlns:svg="http://www.w3.org/2000/svg"
   xmlns="http://www.w3.org/2000/svg"
   xmlns:sodipodi="http://sodipodi.sourceforge.net/DTD/sodipodi-0.dtd"
   xmlns:inkscape="http://www.inkscape.org/namespaces/inkscape"
   sodipodi:docname="lock_s.svg"
   viewBox="0 0 360 460"
   height="460"
   width="360"
   version="1.1"
   id="svg">
  <defs
     id="defs44" />
  <sodipodi:namedview
     inkscape:current-layer="svg"
     inkscape:window-maximized="0"
     inkscape:window-y="354"
     inkscape:window-x="894"
     inkscape:cy="360"
     inkscape:cx="200"
     inkscape:zoom="0.37777778"
     showgrid="false"
     id="namedview42"
     inkscape:window-height="783"
     inkscape:window-width="1100"
     inkscape:pageshadow="2"
     inkscape:pageopacity="0"
     guidetolerance="10"
     gridtolerance="10"
     objecttolerance="10"
     borderopacity="1"
     inkscape:document-rotation="0"
     bordercolor="#666666"
     pagecolor="#ffffff" />
  <g
     inkscape:transform-center-y="-29.117647"
     inkscape:transform-center-x="23.823529"
     transform="translate(-10.588236,-76.764711)"
     id="svgg">
    <path
       inkscape:connector-curvature="0"
       fill-rule="evenodd"
       fill="#c304ec"
       stroke="none"
       d="m 261.79,231.185 c -23.165,1.847 -31.646,3.543 -42.179,8.436 -3.742,1.738 -6.765,3.398 -11.156,6.127 -0.785,0.488 -5.432,3.898 -7.999,5.87 -1.663,1.277 -5.379,4.486 -8.697,7.509 -2.904,2.647 -12.635,12.465 -16.662,16.812 -1.883,2.032 -3.57,3.848 -3.748,4.034 -0.807,0.841 -10.81,12.201 -12.905,14.655 -1.284,1.505 -3.12,3.601 -4.079,4.658 -0.959,1.057 -2.009,2.248 -2.334,2.646 -4.852,5.944 -15.201,16.212 -18.779,18.63 -7.701,5.205 -10.757,4.426 -19.974,-5.093 -3.26,-3.367 -3.86,-4.008 -9.747,-10.411 -15.494,-16.85 -23.466,-18.691 -36.655,-8.461 -1.696,1.315 -3.674,2.809 -4.396,3.32 -6.259,4.427 -10.512,12.167 -11.752,21.385 -0.467,3.475 0.221,5.689 1.959,6.3 0.918,0.323 0.751,0.415 7.406,-4.116 8.819,-6.004 14.945,-7.69 19.632,-5.403 1.558,0.76 7.246,6.677 8.268,8.6 0.312,0.588 1.359,2.232 2.327,3.652 0.967,1.421 2.142,3.284 2.609,4.14 0.468,0.856 1.448,2.467 2.179,3.579 0.731,1.113 1.664,2.654 2.073,3.425 0.41,0.77 1.649,2.849 2.755,4.619 1.105,1.771 2.29,3.689 2.632,4.264 0.343,0.574 1.071,1.647 1.619,2.384 0.548,0.737 1.599,2.178 2.335,3.203 3.642,5.072 12.544,12.611 14.89,12.611 0.268,0 0.62,0.13 0.783,0.289 0.741,0.724 5.659,1.672 8.7,1.677 9.669,0.017 18.162,-4.612 29.116,-15.869 4.454,-4.579 11.809,-13.24 15.398,-18.135 0.856,-1.167 2.149,-2.876 2.875,-3.797 0.725,-0.921 2.406,-3.145 3.735,-4.943 1.329,-1.798 3.397,-4.58 4.596,-6.182 1.198,-1.603 2.739,-3.725 3.424,-4.715 2.15,-3.11 14.868,-19.813 17.899,-23.507 1.796,-2.19 2.313,-2.786 8.924,-10.285 7.394,-8.388 18.336,-18.625 24,-22.454 0.81,-0.547 2.47,-1.704 3.69,-2.57 1.219,-0.866 3.246,-2.14 4.504,-2.832 1.259,-0.692 2.51,-1.458 2.78,-1.703 3.303,-2.988 16.315,-6.639 29.379,-8.243 3.989,-0.489 4.399,-0.812 4.722,-3.72 0.808,-7.254 -9.238,-11.575 -24.147,-10.386"
       id="path0" />
    <path
       inkscape:connector-curvature="0"
       fill-rule="evenodd"
       fill="#6c53fc"
       stroke="none"
       d="m 144.747,105.387 c -3.857,0.411 -7.886,1.053 -16.438,2.621 -3.543,0.65 -8.142,1.951 -13.134,3.717 -1.798,0.636 -4.039,1.41 -4.98,1.72 -0.942,0.31 -3.604,1.472 -5.915,2.582 -2.311,1.11 -4.523,2.141 -4.914,2.292 -0.392,0.151 -2.044,1.081 -3.672,2.067 -1.627,0.986 -3.525,2.084 -4.216,2.441 -9.401,4.841 -26.662,21.246 -34.201,32.504 -0.745,1.113 -1.437,2.093 -1.537,2.179 -0.34,0.291 -1.888,2.787 -1.888,3.044 0,0.141 -0.538,1.089 -1.196,2.108 -2.688,4.163 -8.765,17.259 -8.765,18.89 0,0.216 -0.41,1.654 -0.912,3.195 -3.321,10.199 -4.224,16.985 -4.224,31.751 0,15.481 0.405,18.32 5.284,37.043 0.401,1.541 1.465,4.833 2.363,7.315 0.898,2.483 1.945,5.424 2.325,6.537 0.38,1.113 1.595,4.265 2.699,7.004 1.105,2.739 2.398,6.003 2.873,7.252 1.293,3.396 1.152,3.354 8.093,2.413 18.182,-2.465 25.568,-6.048 27.897,-13.533 1.596,-5.128 0.382,-11.945 -4.766,-26.759 -1.213,-3.49 -2.512,-7.483 -2.885,-8.871 -0.374,-1.389 -1.128,-4.131 -1.675,-6.094 -3.471,-12.435 -3.268,-24.096 0.625,-35.866 0.667,-2.018 1.214,-3.847 1.214,-4.065 0,-2.116 8.958,-17.009 12.764,-21.22 0.942,-1.042 2.012,-2.316 2.378,-2.83 0.696,-0.977 6.697,-6.451 8.428,-7.688 0.552,-0.394 2.163,-1.555 3.58,-2.58 1.417,-1.026 3.418,-2.296 4.445,-2.822 5.599,-2.87 8.308,-4.185 8.622,-4.185 0.193,0 2.105,-0.571 4.25,-1.269 23.119,-7.521 52.393,-3.676 70.234,9.225 11.748,8.495 20.78,22.537 26.62,41.382 0.748,2.413 1.969,5.651 3.816,10.117 2.841,6.867 3.171,7.451 7.088,12.527 2.188,2.835 8.273,4.67 13.254,3.995 7.485,-1.013 25.009,-9.171 25.033,-11.654 0.006,-0.675 -3.672,-11.935 -6.776,-20.744 -4.853,-13.771 -5.666,-15.905 -7.198,-18.91 -0.365,-0.714 -0.663,-1.522 -0.663,-1.797 0,-0.274 -1.121,-2.767 -2.49,-5.54 -1.37,-2.773 -2.491,-5.156 -2.491,-5.296 0,-0.14 -1,-1.96 -2.222,-4.044 -1.223,-2.085 -2.448,-4.232 -2.724,-4.772 -3.05,-5.98 -13.001,-17.681 -19.178,-22.553 -4.638,-3.657 -6.303,-4.891 -7.293,-5.403 -0.565,-0.292 -1.93,-1.149 -3.033,-1.904 -2.62,-1.794 -12.56,-6.68 -16.133,-7.931 -7.992,-2.796 -13.6,-4.496 -15.72,-4.765 -0.599,-0.076 -2.959,-0.504 -5.244,-0.951 -11.049,-2.164 -27.117,-2.969 -37.402,-1.875 m 141.287,135.78 c -0.02,0.129 -0.068,0.374 -0.108,0.545 -0.04,0.171 -0.094,0.633 -0.12,1.026 -0.084,1.273 -1.333,2.166 -3.352,2.397 -13.269,1.522 -24.966,4.666 -30.261,8.133 l -0.724,0.475 1.436,0.911 c 0.789,0.5 1.509,0.91 1.598,0.91 0.181,0 3.931,2.497 4.174,2.78 0.341,0.396 2.389,1.825 3.269,2.281 0.513,0.266 1.354,0.85 1.867,1.297 0.514,0.447 1.759,1.406 2.766,2.131 10.087,7.249 23.066,20.861 26.659,27.958 0.382,0.756 0.968,1.761 1.302,2.235 0.996,1.413 7.43,14.52 8.364,17.038 0.476,1.284 1.445,3.735 2.153,5.448 2.269,5.484 5.555,17.387 6.746,24.435 0.793,4.693 0.787,25.731 -0.01,31.284 -1.236,8.618 -4.46,21.441 -6.898,27.435 -0.966,2.374 -1.9,4.737 -2.076,5.25 -1.471,4.294 -10.659,19.325 -14.176,23.188 -0.388,0.426 -0.705,0.902 -0.705,1.057 0,0.315 -1.435,2.111 -3.385,4.238 -0.707,0.77 -1.285,1.521 -1.285,1.67 0,0.148 -1.027,1.338 -2.284,2.646 -1.256,1.307 -2.482,2.663 -2.724,3.013 -0.477,0.691 -5.432,5.393 -8.841,8.391 -10.332,9.082 -31.066,19.576 -44.613,22.579 -29.899,6.627 -49.428,5.752 -70.876,-3.177 -2.397,-0.998 -4.475,-1.814 -4.618,-1.815 -0.462,0 -11.789,-5.672 -14.837,-7.428 -1.627,-0.938 -3.518,-1.981 -4.203,-2.319 -1.041,-0.514 -5.027,-3.138 -7.401,-4.873 -0.656,-0.479 -2.74,-2.374 -7.673,-6.976 -3.322,-3.1 -8.228,-8.271 -11.14,-11.741 -4.019,-4.79 -4.804,-5.787 -6.226,-7.908 -0.804,-1.199 -1.903,-2.759 -2.443,-3.468 -0.54,-0.709 -1.936,-2.95 -3.103,-4.981 -1.166,-2.03 -2.298,-3.904 -2.516,-4.163 -1.603,-1.911 -6.719,-14.449 -9.397,-23.03 -3.598,-11.531 -5.02,-30.383 -3.346,-44.358 1.327,-11.075 1.507,-12.127 3.346,-19.58 l 1.606,-6.506 -0.844,-0.674 c -1.395,-1.112 -3.579,-1.726 -6.137,-1.724 -4.826,0.003 -8.331,1.696 -19.543,9.435 -1.98,1.368 -2.623,1.425 -3.644,0.323 -0.933,-1.007 -0.839,-1.141 -1.46,2.072 -2.847,14.727 -3.706,36.702 -1.929,49.339 0.241,1.712 0.441,3.743 0.445,4.513 0.013,2.634 2.773,15.177 4.333,19.689 0.34,0.985 0.564,1.79 0.497,1.79 -1.085,0 9.541,24.62 12.158,28.171 0.379,0.514 1.423,2.247 2.322,3.851 0.898,1.605 2.316,3.82 3.15,4.922 0.834,1.102 1.743,2.451 2.019,2.997 0.277,0.546 1.303,1.973 2.282,3.172 0.979,1.198 2.046,2.599 2.372,3.113 2.596,4.092 10.763,12.431 18.367,18.755 1.699,1.412 4.419,3.687 6.045,5.055 1.627,1.368 3.098,2.491 3.269,2.496 0.171,0.005 0.872,0.509 1.556,1.119 1.751,1.561 4.431,3.547 4.786,3.547 0.164,0 0.345,0.112 0.402,0.248 0.136,0.324 4.988,4.01 6.793,5.161 0.773,0.492 2.253,1.569 3.291,2.392 1.037,0.824 2.298,1.666 2.801,1.873 1.592,0.653 3.312,1.414 6.564,2.901 1.738,0.795 4.329,1.847 5.759,2.338 1.43,0.491 4.459,1.606 6.73,2.478 2.271,0.871 5.423,1.928 7.004,2.349 1.581,0.42 4.765,1.313 7.077,1.982 13.94,4.04 35.813,6.284 46.692,4.791 8.415,-1.155 14.324,-2.06 17.899,-2.743 11.392,-2.174 28.284,-7.516 36.816,-11.644 2.179,-1.054 4.52,-2.118 5.202,-2.364 0.682,-0.246 1.593,-0.681 2.024,-0.967 0.43,-0.286 1.834,-1.096 3.118,-1.801 1.284,-0.705 3.105,-1.707 4.046,-2.227 9.75,-5.384 26.403,-19.235 32.867,-27.335 0.683,-0.856 1.797,-2.163 2.475,-2.905 0.679,-0.742 1.654,-1.945 2.168,-2.674 0.514,-0.728 1.949,-2.655 3.191,-4.281 1.241,-1.626 2.256,-3.057 2.256,-3.18 0,-0.122 0.803,-1.37 1.784,-2.774 0.982,-1.403 2.137,-3.204 2.569,-4.002 0.431,-0.798 1.633,-2.899 2.671,-4.669 2.111,-3.601 7.188,-13.864 7.493,-15.149 0.109,-0.458 0.387,-1.183 0.618,-1.611 0.637,-1.18 3.073,-7.109 3.644,-8.871 0.278,-0.856 1.48,-4.447 2.672,-7.98 1.192,-3.533 2.381,-7.459 2.642,-8.724 0.262,-1.266 0.691,-3.232 0.955,-4.369 4.711,-20.315 3.109,-46.344 -4.376,-71.067 -0.777,-2.569 -1.7,-5.65 -2.051,-6.849 -0.35,-1.198 -1.266,-3.79 -2.035,-5.758 -0.769,-1.969 -1.732,-4.596 -2.14,-5.837 -0.409,-1.241 -1.41,-3.53 -2.224,-5.086 -0.815,-1.556 -2.043,-3.907 -2.727,-5.224 -0.685,-1.317 -1.543,-2.811 -1.907,-3.319 -0.364,-0.508 -1.671,-2.534 -2.905,-4.503 -1.235,-1.969 -2.765,-4.281 -3.401,-5.137 -0.637,-0.856 -1.339,-1.922 -1.561,-2.37 -0.222,-0.447 -0.709,-1.148 -1.084,-1.556 -0.374,-0.409 -1.831,-2.359 -3.237,-4.335 -4.411,-6.2 -26.303,-27.289 -26.564,-25.591 m -163.699,36.987 c -11.601,3.036 -17.673,15.68 -12.58,26.195 7.798,16.099 31.498,13.512 35.42,-3.866 3.028,-13.414 -9.628,-25.786 -22.84,-22.329 m 79.533,63.051 c -1.962,0.45 -5.189,1.543 -6.382,2.16 -0.599,0.31 -1.628,0.805 -2.286,1.1 -0.658,0.295 -2.129,1.406 -3.268,2.469 -1.14,1.063 -2.45,2.266 -2.913,2.674 -2.592,2.289 -5.362,9.16 -5.801,14.392 -0.507,6.036 0.275,9.206 4.04,16.398 1.298,2.478 6.097,6.655 9.626,8.378 l 3.289,1.605 0.981,8.779 c 0.54,4.828 1.475,13.19 2.078,18.583 0.603,5.393 1.658,14.491 2.344,20.218 0.687,5.727 1.249,10.951 1.249,11.609 0,0.862 0.218,1.415 0.776,1.974 l 0.777,0.777 8.639,-0.219 8.64,-0.219 5.275,-2.284 c 2.901,-1.256 5.405,-2.284 5.565,-2.284 1.664,0 7.983,-3.405 9.55,-5.145 0.941,-1.046 3.848,-4.236 6.459,-7.088 5.243,-5.728 5.39,-6.028 4.036,-8.24 -0.392,-0.639 -0.872,-1.532 -1.069,-1.985 -0.196,-0.453 -1.346,-2.328 -2.557,-4.168 -1.21,-1.839 -2.2,-3.462 -2.2,-3.607 0,-0.304 -1.67,-3.104 -2.668,-4.475 -0.375,-0.514 -1.347,-2.125 -2.161,-3.58 -0.814,-1.455 -2.231,-3.794 -3.15,-5.197 -0.919,-1.404 -1.671,-2.674 -1.671,-2.822 0,-0.149 -0.898,-1.682 -1.995,-3.407 -1.097,-1.725 -2.449,-3.957 -3.004,-4.96 -0.555,-1.003 -1.756,-2.963 -2.67,-4.356 -0.914,-1.393 -1.76,-2.793 -1.88,-3.113 -0.12,-0.319 -0.682,-1.309 -1.249,-2.2 -1.252,-1.966 -1.25,-1.906 -0.108,-3.761 3.002,-4.88 4.28,-14.748 2.567,-19.834 -1.847,-5.486 -3.375,-8.057 -6.964,-11.718 -5.041,-5.141 -14.927,-8.055 -21.895,-6.454"
       id="path1" />
  </g>
</svg>
